<?xml version="1.0" encoding="UTF-8"?><svg id="uuid-48801b2d-1075-4c94-8692-733c996f5384" xmlns="http://www.w3.org/2000/svg" viewBox="0 0 762 168"><defs><style>.uuid-2b03338c-e481-4ef6-9d95-01f39146bfe6{fill:#2c2a4a;}.uuid-2b03338c-e481-4ef6-9d95-01f39146bfe6,.uuid-cbc583a7-d8e5-47fc-9a84-8ab1831eb37d{stroke-width:0px;}.uuid-cbc583a7-d8e5-47fc-9a84-8ab1831eb37d{fill:#8f7ad5;}</style></defs><path class="uuid-2b03338c-e481-4ef6-9d95-01f39146bfe6" d="M127.82,156.7h-33.2l10.25-59.38h-48.73l-10.35,59.38H12.39L37,14.51h33.5l-9.86,56.45h48.83l9.77-56.45h33.3l-24.71,142.19Z"/><path class="uuid-2b03338c-e481-4ef6-9d95-01f39146bfe6" d="M327.64,130.33h57.91l-4.59,26.37h-91.31l24.61-142.19h33.5l-20.12,115.82Z"/><path class="uuid-2b03338c-e481-4ef6-9d95-01f39146bfe6" d="M395.81,156.7l24.61-142.19,41.8.1c12.3,0,23.05,3.24,32.23,9.72,9.18,6.48,15.69,15.32,19.53,26.51,3.32,9.83,4.33,20.44,3.03,31.84l-.68,5.96c-1.76,12.76-5.99,24.32-12.7,34.67-6.71,10.35-15.33,18.47-25.88,24.37-10.55,5.89-21.94,8.9-34.18,9.03h-47.75ZM449.32,40.88l-15.53,89.36,9.77.1c11.46,0,20.65-4.43,27.59-13.28,6.93-8.85,11.05-22.4,12.35-40.62l.2-3.22c.46-10.42-1.17-18.33-4.88-23.73-3.71-5.4-9.28-8.24-16.7-8.5l-12.79-.1Z"/><path class="uuid-2b03338c-e481-4ef6-9d95-01f39146bfe6" d="M217.86,92.85s-5.76-10.08-9.54-17.14c-3.6-7.05-21.49.83-16.65,10.78,4.83,9.95,12.21,22.26,12.21,22.26,0,0,5.56,8.85,17.93,2.63l63.65-39.82,1.77-1.11s5.02-2.81,6.39-8.27c.01-.01.03-.03.03-.03.02-.1.03-.2.05-.3.1-.46.17-.94.22-1.43,2.53-19.51-10.49-35.18-29.64-35.18h-3.08l.44-2.53c.73-4.18-1.99-7.61-6.05-7.61s-7.98,3.42-8.72,7.61l-.44,2.53h-30.78l.44-2.53c.73-4.18-1.99-7.61-6.05-7.61s-7.98,3.42-8.72,7.61l-.44,2.53h-2.37c-19.71,0-38.75,16.61-42.3,36.92l-9.97,56.96c-3.56,20.3,9.66,36.92,29.37,36.92h65.77c19.71,0,38.75-16.61,42.3-36.92,0,0,2.96-16.91,4.16-23.74,1.62-9.24-16.26-12.94-19.1,1.75-2.43,13.89-3.51,20.05-3.51,20.05-1.88,10.72-11.93,19.5-22.34,19.5h-62.01c-10.41,0-17.39-8.77-15.51-19.5l9.54-54.48c1.88-10.72,11.93-19.5,22.34-19.5h.49l-.2,1.15c-.73,4.18,1.99,7.61,6.05,7.61s7.98-3.42,8.72-7.61l.2-1.15h30.78l-.2,1.15c-.73,4.18,1.99,7.61,6.05,7.61s7.98-3.42,8.72-7.61l.2-1.15h1.21c8.51,0,14.73,5.87,15.69,13.88-.1.08-.21.15-.3.23-2.21,1.7-56.77,35.53-56.77,35.53Z"/><path class="uuid-cbc583a7-d8e5-47fc-9a84-8ab1831eb37d" d="M604.76,122.93h-53.22l-16.99,33.11h-25.98L585.32,13.84h21.68l27.54,142.19h-24.22l-5.57-33.11ZM561.69,103h39.84l-9.67-58.79-30.18,58.79Z"/><path class="uuid-cbc583a7-d8e5-47fc-9a84-8ab1831eb37d" d="M672.42,124.88l52.34-111.04h27.34l-71.88,142.19h-23.34l-27.25-142.19h25.59l17.19,111.04Z"/></svg>